<?xml version="1.0" encoding="UTF-8"?>
<svg width="120" height="120" viewBox="0 0 120 120" xmlns="http://www.w3.org/2000/svg">
  <defs>
    <linearGradient id="sustentabilidadeGradient" x1="0%" y1="0%" x2="100%" y2="100%">
      <stop offset="0%" stop-color="#2ecc71"/>
      <stop offset="100%" stop-color="#1abc9c"/>
    </linearGradient>
  </defs>
  
  <!-- Círculo de fundo -->
  <circle cx="60" cy="60" r="50" fill="url(#sustentabilidadeGradient)" opacity="0.2"/>
  
  <!-- Terra/Globo -->
  <circle cx="60" cy="60" r="30" fill="#3498db" opacity="0.7"/>
  
  <!-- Continentes -->
  <path d="M50,40 C55,35 65,38 70,40 C75,42 80,50 75,55 C70,60 65,65 55,60 C45,55 45,45 50,40 Z" fill="#27ae60"/>
  <path d="M45,65 C50,60 55,65 60,70 C65,75 70,80 65,85 C60,90 50,85 45,80 C40,75 40,70 45,65 Z" fill="#27ae60"/>
  
  <!-- Folhas/Planta -->
  <path d="M60,30 C65,25 75,30 75,35 C75,40 70,45 65,40 L65,50" stroke="#2ecc71" stroke-width="2" fill="none"/>
  <path d="M60,35 C55,30 45,35 45,40 C45,45 50,50 55,45" stroke="#2ecc71" stroke-width="2" fill="none"/>
  
  <!-- Símbolo de reciclagem -->
  <g transform="translate(60, 95) scale(0.7)">
    <path d="M0,-15 L-5,-5 L5,-5 Z" fill="#27ae60"/>
    <path d="M13,7.5 L3,2.5 L3,12.5 Z" fill="#27ae60"/>
    <path d="M-13,7.5 L-3,12.5 L-3,2.5 Z" fill="#27ae60"/>
    <path d="M0,-10 L-15,15 L15,15 Z" fill="none" stroke="#27ae60" stroke-width="2"/>
  </g>
  
  <!-- Gotas de água -->
  <path d="M85,50 C85,45 90,40 95,45 C100,50 95,60 90,55 C85,50 85,55 85,50 Z" fill="#3498db"/>
  <path d="M30,55 C30,50 35,45 40,50 C45,55 40,65 35,60 C30,55 30,60 30,55 Z" fill="#3498db"/>
  
  <!-- Texto -->
  <text x="60" y="115" font-family="Arial, sans-serif" font-size="10" font-weight="bold" fill="#2c3e50" text-anchor="middle">AGRICULTURA SUSTENTÁVEL</text>
</svg>